<svg width="16" height="22" viewBox="0 0 16 22" fill="none" xmlns="http://www.w3.org/2000/svg">
<path d="M8 0C3.57714 0 0 3.443 0 7.7C0 13.475 8 22 8 22C8 22 16 13.475 16 7.7C16 3.443 12.4229 0 8 0ZM8 10.45C7.24224 10.45 6.51551 10.1603 5.9797 9.64454C5.44388 9.12882 5.14286 8.42935 5.14286 7.7C5.14286 6.97065 5.44388 6.27118 5.9797 5.75546C6.51551 5.23973 7.24224 4.95 8 4.95C8.75776 4.95 9.48449 5.23973 10.0203 5.75546C10.5561 6.27118 10.8571 6.97065 10.8571 7.7C10.8571 8.42935 10.5561 9.12882 10.0203 9.64454C9.48449 10.1603 8.75776 10.45 8 10.45V10.45Z" fill="white"/>
</svg>
