<svg width="52" height="60" viewBox="0 0 52 60" fill="none" xmlns="http://www.w3.org/2000/svg">
<path d="M5.32452 4.29C5.04209 4.29 4.77123 4.40288 4.57152 4.60381C4.37181 4.80475 4.25961 5.07727 4.25961 5.36143V41.79C4.25961 42.3771 4.73669 42.8614 5.32452 42.8614H12.7788V47.1471H5.32452C2.38538 47.1471 0 44.7471 0 41.7857L0.00851963 5.35714C0.00851963 2.4 2.3939 0 5.33304 0H24.5141C27.4532 0 29.8386 2.4 29.8386 5.36571L29.8301 13.9286C29.8301 14.52 30.3029 15 30.895 15H33.012C34.3873 14.9988 35.7097 15.5332 36.7022 16.491C37.6948 17.4489 38.2804 18.756 38.3365 20.1386C36.3761 19.0017 34.0471 18.6949 31.8619 19.2857H30.895C30.1946 19.288 29.5006 19.1508 28.8531 18.8822C28.2056 18.6136 27.6172 18.2187 27.122 17.7204C26.6267 17.2221 26.2342 16.6302 25.9673 15.9787C25.7003 15.3272 25.564 14.629 25.5662 13.9243L25.5747 5.35714C25.5747 5.07298 25.4625 4.80046 25.2628 4.59953C25.0631 4.3986 24.7923 4.28571 24.5098 4.28571H5.32452V4.29ZM36.9735 24.4286C36.1855 23.6924 35.1501 23.2832 34.0748 23.2832C32.9995 23.2832 31.964 23.6924 31.1761 24.4286L19.0788 35.73C18.4338 36.3319 17.9193 37.0612 17.5675 37.8724C17.2156 38.6836 17.0341 39.5592 17.0342 40.4443V55.7143C17.0342 56.8509 17.483 57.941 18.2818 58.7447C19.0806 59.5485 20.1641 60 21.2938 60H27.6832C28.813 60 29.8964 59.5485 30.6952 58.7447C31.4941 57.941 31.9428 56.8509 31.9428 55.7143V51.4286H36.2025V55.7143C36.2025 56.8509 36.6512 57.941 37.4501 58.7447C38.2489 59.5485 39.3324 60 40.4621 60H46.8515C47.9812 60 49.0647 59.5485 49.8635 58.7447C50.6623 57.941 51.1111 56.8509 51.1111 55.7143V40.44C51.1106 39.5556 50.9288 38.6809 50.577 37.8705C50.2252 37.06 49.711 36.3314 49.0665 35.73L36.9735 24.4329V24.4286ZM21.9754 38.8714L34.0727 27.57L46.17 38.8714C46.3846 39.0717 46.5559 39.3144 46.6732 39.5843C46.7904 39.8541 46.8511 40.1455 46.8515 40.44V55.7186H40.4621V51.4329C40.4621 50.2962 40.0133 49.2061 39.2145 48.4024C38.4156 47.5987 37.3322 47.1471 36.2025 47.1471H31.9428C30.8131 47.1471 29.7297 47.5987 28.9308 48.4024C28.132 49.2061 27.6832 50.2962 27.6832 51.4329V55.7186H21.2938V40.4443C21.2942 40.1497 21.3549 39.8584 21.4721 39.5886C21.5894 39.3187 21.7607 39.076 21.9754 38.8757V38.8714ZM12.7746 10.7143C12.7746 11.2826 12.5502 11.8277 12.1508 12.2295C11.7514 12.6314 11.2096 12.8571 10.6448 12.8571C10.0799 12.8571 9.53819 12.6314 9.13878 12.2295C8.73936 11.8277 8.51497 11.2826 8.51497 10.7143C8.51497 10.146 8.73936 9.60092 9.13878 9.19906C9.53819 8.79719 10.0799 8.57143 10.6448 8.57143C11.2096 8.57143 11.7514 8.79719 12.1508 9.19906C12.5502 9.60092 12.7746 10.146 12.7746 10.7143ZM10.6448 21.4286C11.2096 21.4286 11.7514 21.2028 12.1508 20.8009C12.5502 20.3991 12.7746 19.854 12.7746 19.2857C12.7746 18.7174 12.5502 18.1723 12.1508 17.7705C11.7514 17.3686 11.2096 17.1429 10.6448 17.1429C10.0799 17.1429 9.53819 17.3686 9.13878 17.7705C8.73936 18.1723 8.51497 18.7174 8.51497 19.2857C8.51497 19.854 8.73936 20.3991 9.13878 20.8009C9.53819 21.2028 10.0799 21.4286 10.6448 21.4286ZM12.7746 27.8571C12.7746 28.4255 12.5502 28.9705 12.1508 29.3724C11.7514 29.7742 11.2096 30 10.6448 30C10.0799 30 9.53819 29.7742 9.13878 29.3724C8.73936 28.9705 8.51497 28.4255 8.51497 27.8571C8.51497 27.2888 8.73936 26.7438 9.13878 26.3419C9.53819 25.94 10.0799 25.7143 10.6448 25.7143C11.2096 25.7143 11.7514 25.94 12.1508 26.3419C12.5502 26.7438 12.7746 27.2888 12.7746 27.8571ZM19.164 12.8571C19.7289 12.8571 20.2706 12.6314 20.67 12.2295C21.0694 11.8277 21.2938 11.2826 21.2938 10.7143C21.2938 10.146 21.0694 9.60092 20.67 9.19906C20.2706 8.79719 19.7289 8.57143 19.164 8.57143C18.5991 8.57143 18.0574 8.79719 17.658 9.19906C17.2586 9.60092 17.0342 10.146 17.0342 10.7143C17.0342 11.2826 17.2586 11.8277 17.658 12.2295C18.0574 12.6314 18.5991 12.8571 19.164 12.8571ZM21.2938 19.2857C21.2938 19.854 21.0694 20.3991 20.67 20.8009C20.2706 21.2028 19.7289 21.4286 19.164 21.4286C18.5991 21.4286 18.0574 21.2028 17.658 20.8009C17.2586 20.3991 17.0342 19.854 17.0342 19.2857C17.0342 18.7174 17.2586 18.1723 17.658 17.7705C18.0574 17.3686 18.5991 17.1429 19.164 17.1429C19.7289 17.1429 20.2706 17.3686 20.67 17.7705C21.0694 18.1723 21.2938 18.7174 21.2938 19.2857ZM19.164 30C19.7289 30 20.2706 29.7742 20.67 29.3724C21.0694 28.9705 21.2938 28.4255 21.2938 27.8571C21.2938 27.2888 21.0694 26.7438 20.67 26.3419C20.2706 25.94 19.7289 25.7143 19.164 25.7143C18.5991 25.7143 18.0574 25.94 17.658 26.3419C17.2586 26.7438 17.0342 27.2888 17.0342 27.8571C17.0342 28.4255 17.2586 28.9705 17.658 29.3724C18.0574 29.7742 18.5991 30 19.164 30Z" fill="#2FCFBE"/>
<path d="M36.9734 24.4286C36.1855 23.6924 35.15 23.2832 34.0748 23.2832C32.9995 23.2832 31.964 23.6924 31.1761 24.4286L19.0788 35.73C18.4338 36.3319 17.9193 37.0612 17.5674 37.8724C17.2156 38.6836 17.0341 39.5592 17.0342 40.4443V55.7143C17.0342 56.8509 17.483 57.941 18.2818 58.7447C19.0806 59.5485 20.1641 60 21.2938 60H27.6832C28.8129 60 29.8964 59.5485 30.6952 58.7447C31.4941 57.941 31.9428 56.8509 31.9428 55.7143V51.4286H36.2024V55.7143C36.2024 56.8509 36.6512 57.941 37.4501 58.7447C38.2489 59.5485 39.3323 60 40.4621 60H46.8515C47.9812 60 49.0647 59.5485 49.8635 58.7447C50.6623 57.941 51.1111 56.8509 51.1111 55.7143V40.44C51.1106 39.5556 50.9288 38.6809 50.577 37.8705C50.2252 37.06 49.7109 36.3314 49.0665 35.73L36.9734 24.4329V24.4286ZM21.9753 38.8714L34.0726 27.57L46.1699 38.8714C46.3846 39.0717 46.5559 39.3144 46.6732 39.5843C46.7904 39.8541 46.8511 40.1455 46.8515 40.44V55.7186H40.4621V51.4329C40.4621 50.2962 40.0133 49.2061 39.2144 48.4024C38.4156 47.5987 37.3322 47.1471 36.2024 47.1471H31.9428C30.8131 47.1471 29.7297 47.5987 28.9308 48.4024C28.132 49.2061 27.6832 50.2962 27.6832 51.4329V55.7186H21.2938V40.4443C21.2941 40.1497 21.3549 39.8584 21.4721 39.5885C21.5894 39.3187 21.7607 39.076 21.9753 38.8757V38.8714Z" fill="#E0E0E0"/>
</svg>
