<svg width="100" height="100" viewBox="0 0 100 100" fill="none" xmlns="http://www.w3.org/2000/svg">
<path d="M64.5824 33.6452L56.565 11.9785C54.3099 5.88413 45.6901 5.88412 43.435 11.9784L35.4176 33.6452C35.1138 34.4663 34.4663 35.1138 33.6452 35.4176L11.9785 43.435C5.88413 45.6901 5.88412 54.3099 11.9784 56.565L33.6452 64.5824C34.4663 64.8862 35.1138 65.5337 35.4176 66.3548L43.435 88.0215C45.6901 94.1159 54.3099 94.1159 56.565 88.0216L64.5824 66.3548C64.8862 65.5337 65.5337 64.8862 66.3548 64.5824L88.0215 56.565C94.1159 54.3099 94.1159 45.6901 88.0216 43.435L66.3548 35.4176C65.5337 35.1138 64.8862 34.4663 64.5824 33.6452Z" stroke="#E0E0E0" stroke-width="4"/>
<path d="M24.8404 52.8136L25.519 50.9797L24.8404 52.8136L41.151 58.849L47.1864 75.1596C48.1529 77.7714 51.8471 77.7714 52.8136 75.1596L58.849 58.849L75.1596 52.8136C77.7714 51.8471 77.7714 48.1529 75.1596 47.1864L58.849 41.151L52.8136 24.8404C51.8471 22.2286 48.1529 22.2286 47.1864 24.8404L49.0621 25.5345L47.1864 24.8404L41.151 41.151L24.8404 47.1864C22.2286 48.1529 22.2286 51.8471 24.8404 52.8136ZM41.5822 59.0086C41.5818 59.0084 41.5814 59.0083 41.581 59.0081L41.5822 59.0086L41.9293 58.0707L41.5822 59.0086ZM59.0086 41.5822L59.0081 41.581C59.0083 41.5814 59.0084 41.5818 59.0086 41.5822L58.0707 41.9293L59.0086 41.5822Z" stroke="#2FCFBE" stroke-width="4"/>
</svg>
