<svg width="100" height="100" viewBox="0 0 100 100" fill="none" xmlns="http://www.w3.org/2000/svg">
<path d="M62.0052 30.4762L56.6574 14.0172C54.5619 7.56806 45.4381 7.56803 43.3426 14.0172L37.9948 30.4762C37.5931 31.7123 36.4413 32.5491 35.1416 32.5491H17.8356C11.0545 32.5491 8.23508 41.2264 13.7211 45.2123L27.7219 55.3845C28.7734 56.1484 29.2134 57.5025 28.8118 58.7386L23.4639 75.1976C21.3684 81.6467 28.7498 87.0096 34.2358 83.0238L48.2366 72.8516C49.2881 72.0877 50.7119 72.0877 51.7634 72.8516L65.7642 83.0238C71.2502 87.0096 78.6316 81.6468 76.5361 75.1976L71.1882 58.7386C70.7866 57.5025 71.2266 56.1484 72.2781 55.3845L86.2789 45.2123C91.7649 41.2265 88.9455 32.5491 82.1644 32.5491H64.8584C63.5587 32.5491 62.4069 31.7123 62.0052 30.4762Z" stroke="#E0E0E0" stroke-width="4"/>
<path d="M52.8532 27.309C51.9551 24.5451 48.0449 24.5451 47.1468 27.309L42.9341 40.2746H29.3013C26.3951 40.2746 25.1868 43.9934 27.5379 45.7016L38.5671 53.7148L34.3543 66.6803C33.4563 69.4443 36.6197 71.7426 38.9708 70.0344L50 62.0213L61.0292 70.0344C63.3803 71.7426 66.5438 69.4443 65.6457 66.6803L61.4329 53.7148L72.4621 45.7016C74.8132 43.9934 73.6049 40.2746 70.6987 40.2746H57.0659L52.8532 27.309Z" stroke="#2FCFBE" stroke-width="4"/>
</svg>
