<svg width="100" height="100" viewBox="0 0 100 100" fill="none" xmlns="http://www.w3.org/2000/svg">
<path d="M68.1329 39.0631L56.4793 10.5619C54.1074 4.76096 45.8926 4.76092 43.5207 10.5619L31.8671 39.0631C31.7644 39.3143 31.6281 39.5503 31.4619 39.7649L12.606 64.1078C8.76815 69.0624 12.8755 76.1766 19.0853 75.3303L49.5949 71.172C49.8637 71.1354 50.1363 71.1354 50.4051 71.172L80.9147 75.3303C87.1245 76.1766 91.2319 69.0624 87.394 64.1078L68.5381 39.7649C68.3719 39.5503 68.2356 39.3143 68.1329 39.0631Z" stroke="#E0E0E0" stroke-width="4"/>
<path d="M52.7768 24.5068C51.7603 22.0207 48.2397 22.0207 47.2232 24.5068M52.7768 24.5068L47.2232 24.5068M52.7768 24.5068L50.9256 25.2638L47.2232 24.5068M52.7768 24.5068L60.6795 43.8342L73.4662 60.3418C75.1109 62.4652 73.3506 65.5141 70.6893 65.1514L50 62.3316L29.3107 65.1514C26.6494 65.5141 24.8891 62.4652 26.5339 60.3418L39.3205 43.8342L47.2232 24.5068M50.135 62.3132C50.1345 62.3132 50.134 62.3133 50.1335 62.3134L50.135 62.3132ZM49.8665 62.3134C49.866 62.3133 49.8655 62.3132 49.8649 62.3132L49.8665 62.3134ZM60.731 43.9604L60.7306 43.9593C60.7308 43.9597 60.7309 43.96 60.731 43.9604L59.8054 44.3389L60.731 43.9604Z" stroke="#2FCFBE" stroke-width="4"/>
</svg>
