<svg width="88" height="72" viewBox="0 0 88 72" fill="none" xmlns="http://www.w3.org/2000/svg">
<path d="M43.1151 20.8863L29.8781 7.64927C29.0645 6.83575 27.7478 6.83795 26.9316 7.65419L7.00959 27.5761C6.19334 28.3924 6.19115 29.7091 7.00467 30.5226L20.2417 43.7596C17.1889 46.8125 17.1025 51.6881 20.0394 54.6251L36.4019 70.9875C36.6042 71.1897 36.9356 71.1892 37.1385 70.9863L39.721 68.4038C39.9239 68.2009 39.9245 67.8694 39.7223 67.6672L23.3598 51.3047C22.2429 50.1879 22.3335 48.2863 23.5556 47.0643L46.4198 24.2002C47.6419 22.9781 49.5434 22.8874 50.6603 24.0043L67.0228 40.3667C67.225 40.569 67.5565 40.5684 67.7594 40.3655L70.3419 37.783C70.5448 37.5801 70.5453 37.2486 70.3431 37.0464L53.9806 20.684C51.0436 17.747 46.168 17.8334 43.1151 20.8863ZM23.5621 40.4393L12.1635 29.0408L28.3962 12.8081L39.7948 24.2066L23.5621 40.4393ZM20.6389 26.4484L18.4254 28.662C18.2225 28.8649 18.2219 29.1964 18.4242 29.3986L20.6303 31.6048C20.8326 31.807 21.164 31.8065 21.367 31.6036L23.5805 29.39C23.7834 29.1871 23.784 28.8556 23.5817 28.6534L21.3756 26.4472C21.1733 26.245 20.8419 26.2455 20.6389 26.4484ZM28.0175 19.07L25.8039 21.2835C25.601 21.4864 25.6004 21.8179 25.8027 22.0201L28.0089 24.2263C28.2111 24.4285 28.5426 24.428 28.7455 24.2251L30.959 22.0115C31.1619 21.8086 31.1625 21.4771 30.9603 21.2749L28.7541 19.0687C28.5519 18.8665 28.2204 18.867 28.0175 19.07Z" fill="#E0E0E0"/>
<rect x="38.8555" y="35.4998" width="46" height="26" rx="12.5" fill="#2FCFBE" stroke="white" stroke-width="5"/>
<path d="M53.1367 54.1958C55.9087 54.1958 57.3087 52.6138 57.3087 49.0998V43.5838H54.9007V49.3658C54.9007 51.3398 54.2707 52.0398 53.1367 52.0398C51.9887 52.0398 51.4007 51.3398 51.4007 49.3658V43.5838H48.9087V49.0998C48.9087 52.6138 50.3507 54.1958 53.1367 54.1958ZM62.7124 54.1958C65.2324 54.1958 66.6884 52.6698 66.6884 50.9338C66.6884 49.4638 65.9184 48.5958 64.6304 48.0778L63.3284 47.5598C62.4044 47.1958 61.7464 46.9718 61.7464 46.3978C61.7464 45.8378 62.2224 45.5298 62.9924 45.5298C63.8044 45.5298 64.4484 45.8098 65.1344 46.3278L66.3804 44.7598C65.4704 43.8498 64.1964 43.3878 62.9924 43.3878C60.7804 43.3878 59.2124 44.7878 59.2124 46.5378C59.2124 48.0498 60.2344 48.9598 61.3264 49.3938L62.6564 49.9538C63.5524 50.3318 64.1264 50.5278 64.1264 51.1298C64.1264 51.6898 63.6924 52.0398 62.7684 52.0398C61.9424 52.0398 60.9764 51.6058 60.2344 50.9758L58.8204 52.6978C59.8984 53.6918 61.3544 54.1958 62.7124 54.1958ZM68.4198 53.9998H72.3538C74.6218 53.9998 76.4278 53.0478 76.4278 50.9198C76.4278 49.5338 75.6298 48.7498 74.5798 48.4698V48.4138C75.4198 48.0918 75.9378 47.0838 75.9378 46.1598C75.9378 44.1578 74.2158 43.5838 72.0598 43.5838H68.4198V53.9998ZM70.9258 47.7138V45.4878H71.9618C73.0118 45.4878 73.5018 45.7958 73.5018 46.5378C73.5018 47.2518 73.0258 47.7138 71.9618 47.7138H70.9258ZM70.9258 52.0818V49.5618H72.1718C73.3898 49.5618 73.9918 49.8978 73.9918 50.7518C73.9918 51.6478 73.3758 52.0818 72.1718 52.0818H70.9258Z" fill="white"/>
</svg>
